<svg xmlns="http://www.w3.org/2000/svg" viewBox="0 0 64 64" fill="none">
  <defs>
    <linearGradient id="wmFavGrad" x1="10" y1="52" x2="54" y2="12" gradientUnits="userSpaceOnUse">
      <stop offset="0%" stop-color="#10B981" />
      <stop offset="50%" stop-color="#06B6D4" />
      <stop offset="100%" stop-color="#3B82F6" />
    </linearGradient>
    <linearGradient id="wmBgGrad" x1="0" y1="0" x2="64" y2="64" gradientUnits="userSpaceOnUse">
      <stop offset="0%" stop-color="#0F172A" />
      <stop offset="100%" stop-color="#07090E" />
    </linearGradient>
    <filter id="wmGlow" x="-20%" y="-20%" width="140%" height="140%">
      <feGaussianBlur stdDeviation="2.5" result="blur" />
      <feComposite in="SourceGraphic" in2="blur" operator="over" />
    </filter>
  </defs>

  <!-- Outer Rounded Canvas -->
  <rect width="64" height="64" rx="16" fill="url(#wmBgGrad)" stroke="rgba(255, 255, 255, 0.12)" stroke-width="1.5" />

  <!-- Alignment Track Ring -->
  <circle cx="32" cy="32" r="23" stroke="rgba(6, 182, 212, 0.2)" stroke-width="1" stroke-dasharray="3 3" />

  <!-- Nexus WM Arrow Monogram -->
  <!-- Left W -->
  <path d="M13 24V43C13 44.7 14.3 46 16 46H17.5C19.2 46 20.5 44.7 20.5 43V33.5L26.2 43.8C26.8 44.9 28.4 45 29.1 44L36 33.5V43C36 44.7 37.3 46 39 46H40.5C42.2 46 43.5 44.7 43.5 43V30.5" 
        stroke="url(#wmFavGrad)" 
        stroke-width="4.5" 
        stroke-linecap="round" 
        stroke-linejoin="round" 
        filter="url(#wmGlow)" />

  <!-- Upward Opportunity Arrow -->
  <path d="M36 30L49 14.5M49 14.5H38.5M49 14.5V25" 
        stroke="url(#wmFavGrad)" 
        stroke-width="5" 
        stroke-linecap="round" 
        stroke-linejoin="round" 
        filter="url(#wmGlow)" />

  <!-- Radar Precision Node -->
  <circle cx="28" cy="21" r="3" fill="#10B981" />
  <circle cx="28" cy="21" r="5" stroke="#10B981" stroke-width="1" opacity="0.5" />
</svg>
